<svg width="400" height="150" viewBox="0 0 400 150" fill="none" xmlns="http://www.w3.org/2000/svg">
<rect width="400" height="150" fill="black"/>
<path d="M64.347 19L84.1933 46.0917V89.7845L42.6492 72.4534L84.1933 130.147H101.948V19H64.347Z" fill="white"/>
<path d="M50.6006 130.147L30.7544 103.052V59.3589L72.2984 76.6936L30.7544 19H13V130.147H50.6006Z" fill="white"/>
<path d="M134.511 87.1123V19H141.852L172.865 65.4008C173.715 66.6524 174.666 68.1125 175.714 69.7885C176.762 71.4644 177.863 73.277 179.022 75.2298C180.178 77.1791 181.304 79.2074 182.399 81.3113L181.441 81.5415C181.29 79.4088 181.168 77.2978 181.075 75.2082C180.985 73.1223 180.924 71.1479 180.892 69.2886C180.86 67.4292 180.845 65.8 180.845 64.3975V19H187.275V87.1123H179.84L150.884 43.9591C149.818 42.3443 148.724 40.6432 147.601 38.863C146.474 37.0791 145.236 35.0616 143.883 32.8066C142.53 30.5517 140.955 27.9299 139.161 24.9449L140.392 24.6248C140.482 27.43 140.568 30.0482 140.643 32.4865C140.718 34.9249 140.787 37.1043 140.848 39.0248C140.909 40.9453 140.937 42.5745 140.937 43.9159V87.1159H134.511V87.1123Z" fill="white"/>
<path d="M221.718 88.1625C217.003 88.1625 212.923 87.0584 209.471 84.8466C206.02 82.6384 203.361 79.5743 201.491 75.6578C199.622 71.7413 198.685 67.2386 198.685 62.1497C198.685 57.0284 199.622 52.497 201.491 48.5481C203.361 44.6028 205.969 41.5063 209.314 39.2694C212.658 37.0288 216.504 35.9103 220.853 35.9103C223.77 35.9103 226.533 36.4354 229.131 37.4892C231.733 38.5393 234.04 40.1253 236.064 42.2436C238.084 44.3619 239.673 46.998 240.829 50.1521C241.984 53.3061 242.562 56.9853 242.562 61.1931V63.6602H202.561V58.3591H239.232L236.451 60.3263C236.451 56.6688 235.819 53.4176 234.56 50.5657C233.297 47.7173 231.503 45.4768 229.178 43.844C226.853 42.2148 224.075 41.3984 220.853 41.3984C217.66 41.3984 214.861 42.2364 212.46 43.9123C210.056 45.5883 208.187 47.8216 206.852 50.6088C205.514 53.3961 204.846 56.4998 204.846 59.9127V62.8834C204.846 66.8466 205.532 70.3064 206.899 73.259C208.266 76.2152 210.221 78.5169 212.758 80.1605C215.295 81.8077 218.284 82.6277 221.721 82.6277C224.122 82.6277 226.243 82.2464 228.083 81.484C229.924 80.7215 231.474 79.6786 232.737 78.3515C233.997 77.0245 234.933 75.5571 235.543 73.9387L241.428 75.4025C240.667 77.7186 239.39 79.8512 237.596 81.8041C235.802 83.7533 233.559 85.2998 230.868 86.4434C228.173 87.5943 225.123 88.1625 221.718 88.1625Z" fill="white"/>
<path d="M265.505 87.1123L246.121 36.644H252.734L264.457 68.188C265.49 70.9321 266.42 73.6726 267.238 76.4166C268.059 79.1607 268.91 81.84 269.793 84.4618H267.787C268.669 81.84 269.52 79.1607 270.342 76.4166C271.163 73.6726 272.089 70.9321 273.122 68.188L284.798 36.644H291.411L272.028 87.1123H265.505Z" fill="white"/>
<path d="M317.228 87.8424C313.823 87.8424 310.798 87.1195 308.15 85.6702C305.506 84.2244 303.435 82.1061 301.946 79.3153C300.457 76.5281 299.711 73.1367 299.711 69.1447V36.644H305.821V68.688C305.821 72.8922 306.991 76.2008 309.334 78.6068C311.674 81.0164 314.806 82.2176 318.732 82.2176C321.376 82.2176 323.762 81.653 325.894 80.5273C328.022 79.4016 329.701 77.7617 330.935 75.6146C332.166 73.4676 332.783 70.8997 332.783 67.9111V36.644H338.894V87.1123H332.966V75.3197H334.061C332.632 79.7397 330.419 82.9297 327.426 84.8969C324.426 86.8606 321.028 87.8424 317.228 87.8424Z" fill="white"/>
<path d="M365.346 88.1625C362.274 88.1625 359.469 87.5835 356.932 86.4254C354.391 85.2674 352.371 83.5519 350.864 81.2826C349.361 79.0132 348.607 76.2476 348.607 72.9856C348.607 70.4574 349.084 68.3391 350.042 66.6308C351 64.9261 352.353 63.5307 354.101 62.4482C355.848 61.3657 357.915 60.5061 360.305 59.866C362.691 59.2258 365.328 58.7223 368.217 58.3591C371.073 57.9922 373.477 57.683 375.422 57.4204C377.366 57.1615 378.848 56.7335 379.867 56.1401C380.886 55.5467 381.396 54.626 381.396 53.3745V52.2776C381.396 50.0226 380.922 48.0877 379.982 46.473C379.039 44.8582 377.679 43.6102 375.899 42.7255C374.119 41.8408 371.955 41.3984 369.401 41.3984C366.968 41.3984 364.833 41.7868 362.992 42.5637C361.151 43.3405 359.641 44.3619 358.453 45.6278C357.269 46.8937 356.429 48.3035 355.945 49.8572L349.971 48.3035C350.882 45.4696 352.31 43.1463 354.258 41.3337C356.203 39.5211 358.485 38.1653 361.101 37.2662C363.717 36.3671 366.451 35.9175 369.311 35.9175C371.439 35.9175 373.581 36.2088 375.741 36.7878C377.901 37.3669 379.86 38.3055 381.626 39.6002C383.387 40.8949 384.812 42.6176 385.892 44.7647C386.972 46.9117 387.51 49.5587 387.51 52.6947V87.1159H381.489V79.0708H381.08C380.38 80.6244 379.333 82.0954 377.933 83.4836C376.534 84.8718 374.794 85.9974 372.713 86.8678C370.631 87.7309 368.177 88.1625 365.346 88.1625ZM366.261 82.678C369.393 82.678 372.092 82.009 374.356 80.6676C376.62 79.3261 378.36 77.5135 379.577 75.2262C380.793 72.9389 381.4 70.425 381.4 67.6845V60.5061C380.973 60.9017 380.266 61.2686 379.279 61.603C378.292 61.9375 377.151 62.236 375.859 62.4949C374.568 62.7539 373.251 62.9733 371.916 63.1567C370.578 63.3401 369.332 63.5091 368.177 63.6602C365.378 63.9946 362.978 64.5377 360.972 65.2822C358.966 66.0302 357.43 67.0408 356.365 68.3211C355.299 69.6014 354.768 71.245 354.768 73.259C354.768 75.2406 355.27 76.9309 356.271 78.3335C357.276 79.7361 358.643 80.8114 360.376 81.5559C362.109 82.3039 364.069 82.678 366.261 82.678Z" fill="white"/>
<path d="M159.822 130.147V116.114C159.822 115.499 159.832 114.761 159.85 113.898C159.868 113.032 159.893 112.107 159.919 111.122L159.994 108.141C160.005 107.702 160.015 107.274 160.019 106.857L159.018 106.709C158.882 107.195 158.742 107.687 158.598 108.187C158.297 109.234 157.999 110.248 157.705 111.23C157.414 112.197 157.134 113.104 156.872 113.92C156.61 114.736 156.388 115.412 156.208 115.952L150.988 130.147H147.389L142.103 115.938C141.913 115.405 141.687 114.729 141.439 113.945C141.181 113.143 140.905 112.255 140.603 111.28C140.302 110.306 139.997 109.291 139.692 108.241L139.322 106.975L138.321 107.13L138.343 108.058C138.368 109.054 138.389 110.047 138.411 111.036C138.429 112.025 138.45 112.967 138.468 113.852C138.486 114.733 138.497 115.488 138.497 116.117V130.151H134.478V102.433H141.271L146.614 116.988C146.797 117.516 147.012 118.214 147.245 119.052C147.482 119.897 147.729 120.807 147.984 121.774C148.239 122.742 148.483 123.695 148.702 124.601L148.734 124.734H149.728L149.753 124.63C149.976 123.72 150.212 122.778 150.464 121.81C150.711 120.85 150.959 119.933 151.203 119.084C151.443 118.239 151.655 117.527 151.834 116.966L157.113 102.433H163.901V130.151H159.822V130.147Z" fill="white"/>
<path d="M200.54 130.147L198.143 123.087H186.59L184.239 130.147H179.747L189.435 102.429H195.216L205.069 130.147H200.54ZM191.8 105.936C191.369 107.565 190.967 109.05 190.601 110.395C190.081 112.302 189.575 114.031 189.105 115.538L187.637 119.944H197.081L195.582 115.524C195.086 113.985 194.559 112.24 194.021 110.349C193.644 109.025 193.228 107.536 192.79 105.929L192.291 104.098L191.8 105.936Z" fill="white"/>
<path d="M236.903 130.147L231.331 119.617H225.041V130.147H220.925V102.429H231.248C233.326 102.429 235.102 102.796 236.53 103.523C237.94 104.238 239.024 105.253 239.752 106.54C240.488 107.838 240.861 109.378 240.861 111.118C240.861 112.855 240.484 114.377 239.738 115.643C238.999 116.898 237.901 117.88 236.473 118.567C236.311 118.646 236.142 118.718 235.974 118.789L235.443 119.005L241.457 130.151H236.903V130.147ZM225.037 116.376H230.588C231.926 116.376 233.053 116.171 233.936 115.772C234.854 115.355 235.55 114.74 236.006 113.942C236.455 113.161 236.681 112.212 236.681 111.122C236.681 110.011 236.455 109.04 236.01 108.238C235.554 107.418 234.854 106.785 233.932 106.353C233.039 105.936 231.908 105.727 230.57 105.727H225.037V116.376Z" fill="white"/>
<path d="M275.096 130.147L266.183 116.945L261.708 121.886V130.147H257.593V102.429H261.708V110.464L261.622 118.063L262.57 116.696C262.727 116.466 262.889 116.243 263.047 116.02C263.642 115.182 264.285 114.334 264.956 113.496C265.627 112.658 266.359 111.769 267.13 110.856L274.533 102.433H279.517L269 114.326L279.89 130.147H275.096Z" fill="white"/>
<path d="M296.051 130.147V102.429H313.945V105.767H300.167V114.485H312.926V117.765H300.167V126.813H314.003V130.147H296.051Z" fill="white"/>
<path d="M338.435 130.147V105.767H329.561V102.429H351.384V105.767H342.532V130.147H338.435Z" fill="white"/>
<path d="M377.133 130.589C374.97 130.589 373.068 130.244 371.485 129.561C369.928 128.888 368.705 127.906 367.847 126.64C367.072 125.497 366.62 124.109 366.491 122.512H370.535C370.671 123.447 370.994 124.256 371.5 124.925C372.088 125.698 372.885 126.288 373.875 126.673C374.833 127.047 375.92 127.237 377.112 127.237C378.314 127.237 379.39 127.054 380.309 126.691C381.256 126.317 382.013 125.774 382.562 125.076C383.125 124.357 383.413 123.515 383.413 122.58C383.413 121.728 383.161 120.998 382.666 120.415C382.2 119.872 381.54 119.404 380.696 119.027C379.896 118.667 378.924 118.347 377.811 118.07L374.6 117.261C372.192 116.668 370.326 115.761 369.053 114.567C367.8 113.398 367.194 111.906 367.194 110.003C367.194 108.421 367.617 107.022 368.457 105.846C369.304 104.656 370.488 103.713 371.981 103.048C373.491 102.372 375.239 102.03 377.173 102.03C379.153 102.03 380.901 102.375 382.365 103.055C383.811 103.728 384.959 104.67 385.777 105.86C386.495 106.911 386.915 108.126 387.026 109.475H383.061C382.838 108.248 382.232 107.263 381.252 106.544C380.187 105.76 378.791 105.364 377.112 105.364C375.985 105.364 374.98 105.548 374.133 105.907C373.265 106.278 372.58 106.788 372.095 107.432C371.6 108.094 371.349 108.86 371.349 109.716C371.349 110.615 371.629 111.377 372.178 111.974C372.687 112.528 373.362 112.985 374.184 113.334C374.966 113.665 375.816 113.942 376.71 114.15L379.433 114.841C380.564 115.103 381.633 115.452 382.62 115.876C383.588 116.294 384.457 116.819 385.196 117.437C385.921 118.045 386.495 118.775 386.904 119.606C387.309 120.429 387.514 121.418 387.514 122.544C387.514 124.141 387.105 125.558 386.301 126.752C385.494 127.95 384.313 128.899 382.785 129.568C381.238 130.244 379.333 130.589 377.133 130.589Z" fill="white"/>
</svg>
